# xmcd
#
# Track frame offsets: 
#        150
#        13780
#        24340
#        35869
#        46861
#        59334
#        74623
#        87450
#        102318
#        120491
#        135802
#        147987
#        159969
#        172669
#        184225
#        194618
#        209400
#        221544
#        234430
#        249669
#        262218
#        275844
#        288847
#        301993
#        314262
#        326062
#
# Disc length: 4578 seconds
#
# Revision: 3
# Processed by: cddbd v1.5.2PL0 Copyright (c) Steve Scherf et al.
# Submitted via: ExactAudioCopyFreeDBPlugin 1.0
#
DISCID=8511e01a
DTITLE=Various Artist - Take Me To The River:  A Southern Soul Story,
DTITLE=1961-1977
DYEAR=2008
DGENRE=Soul
TTITLE0=William Bell - You Don't Miss Your Water
TTITLE1=Arthur Alexander - Go Home Girl
TTITLE2=Otis Redding - These Arms of Mine
TTITLE3=Jimmy Hughes - Steal Away
TTITLE4=Joe Simon - My Adorable One
TTITLE5=O.V. Wright - You're Gonna Make Me Cry
TTITLE6=Percy Sledge - When a Man Loves a Woman
TTITLE7=Eddy Giles - Losin' Boy
TTITLE8=Otis Redding - Try a Little Tenderness
TTITLE9=Jarvis Jackson - Something I Never Had
TTITLE10=Wilson Pickett - Ninety-Nine and a Half (Won't Do)
TTITLE11=Eddie Floyd - Got to Make a Comeback
TTITLE12=Charlie Rich - When Something is Wrong with My Baby
TTITLE13=James Carr - The Dark End of the Street
TTITLE14=Toussaint McCall - Let's Do it Over
TTITLE15=Aretha Franklin - Do Right Woman, Do Right Man
TTITLE16=Sam and Dave - I Can't Stand Up for Falling Down
TTITLE17=June Edwards - You Ain't Woman Enough (To Take My Man)
TTITLE18=The Masqueraders - Let's Face Facts
TTITLE19=James and Bobby Purify - She Ain't Gonna Do Right
TTITLE20=Al Johnson - Bless Your Sweet Soul
TTITLE21=Laura Lee - Dirty Man
TTITLE22=Eddie Hinton - Cover Me
TTITLE23=Reuben Bell and The Beltones - You're Gonna Miss Me
TTITLE24=Etta James - I'd Rather Go Blind
TTITLE25=Oscar Toney, Jr. - Without Love (There is Nothing)
EXTD=
EXTT0=
EXTT1=
EXTT2=
EXTT3=
EXTT4=
EXTT5=
EXTT6=
EXTT7=
EXTT8=
EXTT9=
EXTT10=
EXTT11=
EXTT12=
EXTT13=
EXTT14=
EXTT15=
EXTT16=
EXTT17=
EXTT18=
EXTT19=
EXTT20=
EXTT21=
EXTT22=
EXTT23=
EXTT24=
EXTT25=
PLAYORDER=
